<?xml version="1.0" standalone="no"?>
<!DOCTYPE svg PUBLIC "-//W3C//DTD SVG 20010904//EN"
 "http://www.w3.org/TR/2001/REC-SVG-20010904/DTD/svg10.dtd">
<svg version="1.0" xmlns="http://www.w3.org/2000/svg"
 width="260.000000pt" height="260.000000pt" viewBox="0 0 260.000000 260.000000"
 preserveAspectRatio="xMidYMid meet">
<metadata>
Created by potrace 1.14, written by Peter Selinger 2001-2017
</metadata>
<g transform="translate(0.000000,260.000000) scale(0.100000,-0.100000)"
fill="#000000" stroke="none">
<path d="M110 2055 l0 -75 300 0 300 0 0 -770 0 -770 85 0 85 0 0 770 0 770
300 0 300 0 0 75 0 75 -685 0 -685 0 0 -75z"/>
<path d="M1758 1605 c-104 -26 -187 -73 -269 -155 -121 -120 -169 -241 -169
-425 0 -183 49 -307 169 -425 121 -119 248 -170 426 -170 342 0 595 253 595
595 0 281 -181 518 -441 580 -79 18 -234 18 -311 0z m355 -168 c117 -58 190
-152 222 -289 59 -251 -64 -492 -286 -559 -132 -40 -299 -13 -402 65 -107 82
-158 189 -165 347 -8 190 51 318 187 411 74 52 141 68 262 65 99 -2 110 -4
182 -40z"/>
</g>
</svg>
