<svg width="220" height="93" viewBox="0 0 220 93" fill="none" xmlns="http://www.w3.org/2000/svg">
<path d="M20.5232 72.0735H26.6968V19.0136H47.2201V13.6742H0V19.0136H20.5232V72.0735Z" fill="#4285F4"/>
<path d="M62.159 72.4586C74.0186 72.4586 82.7207 63.8335 82.7207 51.8199C82.7207 39.8063 74.0186 31.2582 62.159 31.2582C50.2994 31.2582 41.5203 39.8063 41.5203 51.8199C41.5203 63.8335 50.2994 72.4586 62.159 72.4586ZM62.159 67.607C53.5339 67.607 47.065 61.2921 47.065 51.8199C47.065 42.3476 53.5339 36.0328 62.159 36.0328C70.7841 36.0328 77.176 42.3476 77.176 51.8199C77.176 61.2921 70.7841 67.607 62.159 67.607Z" fill="#EA4335"/>
<path fill-rule="evenodd" clip-rule="evenodd" d="M169.977 90.285L214.978 12.3414L219.681 15.0565L174.68 93.0001L169.977 90.285Z" fill="#EA4335"/>
<path d="M188.242 19.993C188.242 24.2188 184.817 27.6446 180.591 27.6446C176.365 27.6446 172.939 24.2188 172.939 19.993C172.939 15.7671 176.365 12.3413 180.591 12.3413C184.817 12.3413 188.242 15.7671 188.242 19.993Z" fill="#34A853"/>
<path d="M129.497 51.0932C129.497 61.3172 121.209 69.6053 110.985 69.6053C100.761 69.6053 92.4731 61.3172 92.4731 51.0932C92.4731 40.8693 100.761 32.5812 110.985 32.5812C121.209 32.5812 129.497 40.8693 129.497 51.0932Z" fill="white"/>
<path fill-rule="evenodd" clip-rule="evenodd" d="M110.985 35.0495C102.124 35.0495 94.9414 42.2325 94.9414 51.0932C94.9414 59.954 102.124 67.137 110.985 67.137C119.846 67.137 127.029 59.954 127.029 51.0932C127.029 42.2325 119.846 35.0495 110.985 35.0495ZM90.0049 51.0932C90.0049 39.5061 99.3981 30.1129 110.985 30.1129C122.572 30.1129 131.966 39.5061 131.966 51.0932C131.966 62.6804 122.572 72.0736 110.985 72.0736C99.3981 72.0736 90.0049 62.6804 90.0049 51.0932Z" fill="#FBBC05"/>
<path d="M127.523 10.3667H131.966V51.34H127.523V10.3667Z" fill="#FBBC05"/>
<path d="M155.539 34.3978C149.639 34.3978 144.094 36.2461 140.326 39.445L142.601 43.2125C145.658 40.5112 150.207 38.8052 155.041 38.8052C162.008 38.8052 165.633 42.2884 165.633 48.6862V50.9609H153.762C143.028 50.9609 139.331 55.7948 139.331 61.5528C139.331 68.0216 144.52 72.429 152.98 72.429C159.164 72.429 163.571 70.0831 165.846 66.2445V72.0736H170.68V48.8994C170.68 39.2317 165.206 34.3978 155.539 34.3978ZM153.762 68.4482C147.79 68.4482 144.307 65.7469 144.307 61.4106C144.307 57.572 146.653 54.7285 153.904 54.7285H165.633V60.8419C163.643 65.7469 159.448 68.4482 153.762 68.4482Z" fill="#4285F4"/>
</svg>
